<?xml version="1.0" standalone="no"?>
<!DOCTYPE svg PUBLIC "-//W3C//DTD SVG 20010904//EN"
 "http://www.w3.org/TR/2001/REC-SVG-20010904/DTD/svg10.dtd">
<svg version="1.0" xmlns="http://www.w3.org/2000/svg"
 width="455.000000pt" height="352.000000pt" viewBox="0 0 455.000000 352.000000"
 preserveAspectRatio="xMidYMid meet">
<metadata>
Created by potrace 1.15, written by Peter Selinger 2001-2017
</metadata>
<g transform="translate(0.000000,352.000000) scale(0.100000,-0.100000)"
fill="#000000" stroke="none">
<path d="M1381 3299 c-25 -5 -47 -13 -50 -17 -3 -5 -23 -15 -43 -21 -20 -7
-38 -17 -40 -22 -2 -6 -22 -11 -44 -12 -24 -1 -48 -9 -59 -20 -9 -10 -23 -16
-30 -13 -7 2 -21 -4 -30 -14 -10 -11 -22 -17 -26 -14 -5 3 -9 1 -9 -3 0 -5
-13 -17 -30 -26 -16 -10 -30 -16 -30 -13 0 3 -26 -19 -57 -49 -32 -30 -64 -55
-70 -55 -7 0 -13 -6 -13 -14 0 -8 -12 -24 -26 -35 -15 -12 -23 -21 -18 -21 5
-1 -1 -9 -13 -19 -12 -10 -19 -22 -16 -25 4 -4 -2 -9 -12 -12 -16 -4 -47 -55
-55 -92 -1 -4 -10 -18 -20 -32 -9 -14 -15 -30 -13 -37 2 -7 -5 -18 -16 -25
-15 -9 -21 -23 -21 -48 0 -20 -6 -44 -14 -55 -7 -11 -16 -50 -19 -87 -3 -38
-11 -77 -17 -87 -11 -21 -14 -241 -4 -278 6 -20 13 -23 63 -23 l56 0 -3 144
c-3 117 0 150 13 175 8 17 17 53 19 80 4 55 12 74 28 65 7 -5 9 2 4 20 -7 27
19 86 37 86 5 0 7 6 4 14 -3 8 3 22 13 31 11 10 19 20 18 24 -2 20 4 31 18 31
9 0 14 6 11 13 -2 6 7 22 20 34 13 12 23 25 23 28 -1 20 1 25 8 23 4 -2 33 23
64 55 31 32 61 56 67 53 5 -4 17 4 25 16 9 12 16 19 16 15 0 -4 9 1 20 10 10
9 28 18 39 20 12 1 30 12 40 22 11 11 28 17 38 15 10 -3 29 4 42 15 19 17 38
21 88 21 38 0 63 4 63 11 0 7 37 9 113 5 192 -9 236 -15 248 -38 6 -11 19 -19
32 -18 38 3 47 0 47 -16 0 -8 4 -13 9 -9 5 3 12 1 16 -5 4 -6 10 -8 15 -5 5 3
14 -4 20 -15 6 -11 15 -18 20 -15 5 3 14 -4 20 -15 6 -11 16 -20 22 -20 6 0
19 -7 29 -16 10 -9 22 -13 27 -10 16 10 25 115 12 132 -7 7 -9 14 -4 15 5 1
-2 4 -16 8 -14 4 -24 13 -22 20 1 7 -2 10 -8 6 -5 -3 -10 -1 -10 5 0 7 -6 10
-14 7 -17 -7 -39 16 -28 28 4 5 -1 5 -10 2 -24 -9 -48 2 -48 20 0 10 -7 14
-20 10 -11 -3 -18 -1 -14 4 3 5 -6 9 -20 9 -14 0 -35 9 -46 20 -11 11 -39 25
-62 32 -53 14 -287 19 -347 7z"/>
<path d="M2805 3299 c-75 -9 -151 -33 -171 -54 -9 -8 -29 -15 -45 -15 -17 0
-32 -6 -35 -15 -4 -8 -15 -15 -26 -15 -10 0 -37 -10 -58 -22 -37 -22 -40 -26
-39 -68 2 -97 31 -124 82 -76 15 14 30 26 32 26 14 2 42 16 53 27 7 7 24 13
37 13 13 0 28 7 32 15 6 10 31 17 73 20 36 3 67 10 68 15 5 13 195 13 208 0 5
-5 40 -12 78 -15 40 -3 74 -12 83 -20 8 -8 30 -15 49 -15 22 0 34 -5 34 -14 0
-13 44 -32 63 -27 5 1 6 -2 3 -7 -2 -4 16 -20 42 -34 43 -24 183 -148 167
-148 -4 0 5 -14 19 -31 14 -17 26 -35 26 -40 0 -5 6 -9 14 -9 8 0 17 -11 20
-25 4 -14 11 -25 16 -25 6 0 10 -9 10 -21 0 -11 7 -27 15 -35 8 -9 15 -31 15
-50 0 -22 7 -40 20 -51 15 -13 20 -30 20 -69 0 -33 5 -54 13 -56 9 -3 13 -45
15 -152 3 -121 1 -152 -12 -171 -10 -15 -16 -46 -16 -80 l0 -55 65 0 c45 0 65
4 66 13 1 6 2 34 3 60 1 30 7 51 16 57 12 7 15 38 14 160 -1 104 -4 154 -12
159 -7 4 -15 38 -18 76 -3 41 -11 76 -20 86 -9 10 -17 34 -19 54 -2 21 -8 41
-13 44 -5 3 -13 20 -16 38 -4 17 -14 34 -23 37 -9 4 -13 9 -10 13 13 13 -61
123 -120 177 -18 16 -33 36 -33 43 0 7 -5 13 -11 13 -6 0 -33 23 -61 50 -28
28 -56 50 -64 50 -8 0 -14 5 -14 11 0 5 -15 16 -34 24 -19 8 -37 19 -41 25 -3
5 -19 10 -35 10 -16 0 -33 6 -37 14 -4 8 -27 16 -51 19 -23 2 -51 12 -61 21
-10 9 -35 16 -57 16 -28 0 -43 6 -52 20 -11 18 -22 20 -110 19 -53 -1 -124 -5
-157 -10z"/>
<path d="M2251 3171 c-12 -16 -22 -50 -24 -80 -2 -29 -9 -56 -14 -60 -11 -7
-23 -77 -25 -156 -1 -27 -7 -56 -15 -63 -8 -8 -13 -39 -14 -80 -1 -97 -9 -166
-19 -172 -5 -3 -12 -68 -16 -145 -5 -95 -11 -144 -21 -153 -9 -9 -13 -44 -14
-110 -1 -125 -7 -194 -19 -206 -6 -6 -10 -31 -10 -56 0 -25 -4 -50 -8 -55 -14
-16 -34 -275 -26 -348 4 -42 3 -67 -3 -67 -6 0 -13 -41 -16 -91 -3 -50 -8 -94
-12 -97 -17 -17 -29 28 -32 125 -2 60 -10 131 -17 158 -8 28 -17 73 -20 102
-4 28 -13 68 -21 87 -8 19 -15 55 -15 78 -1 24 -7 54 -15 68 -8 14 -14 36 -15
50 0 63 -76 240 -102 240 -10 0 -28 10 -40 22 -18 18 -37 23 -90 26 -85 5
-125 -14 -224 -106 -39 -37 -80 -74 -90 -82 -16 -13 -87 -15 -477 -18 -375 -2
-462 -5 -473 -17 -17 -17 -34 -60 -34 -86 0 -19 9 -19 468 -16 476 3 566 10
579 44 3 7 10 13 16 13 11 0 25 12 81 66 62 60 126 103 144 97 19 -7 61 -53
62 -68 0 -5 7 -23 16 -40 8 -16 18 -50 21 -75 3 -25 11 -56 18 -70 7 -14 16
-52 20 -85 4 -33 12 -66 17 -73 6 -6 12 -40 15 -75 2 -34 10 -71 17 -82 7 -11
16 -55 19 -98 3 -43 10 -84 15 -90 5 -7 10 -30 11 -52 1 -22 6 -74 12 -115 5
-41 15 -115 21 -165 7 -49 17 -95 24 -102 6 -7 15 -32 18 -57 8 -52 25 -66 79
-66 53 0 75 44 83 165 4 52 10 95 14 95 10 0 20 103 22 229 0 61 6 115 14 130
8 18 14 90 16 224 2 137 7 200 15 205 7 5 14 56 18 137 10 173 11 187 17 205
15 40 17 58 19 162 1 75 5 116 14 124 8 8 15 60 20 143 4 72 10 131 15 131 4
0 10 28 14 63 4 34 9 77 13 96 5 30 7 32 17 15 5 -11 12 -30 14 -44 2 -14 7
-27 13 -28 5 -2 7 -8 3 -13 -3 -5 -1 -9 4 -9 6 0 10 -10 10 -22 -1 -100 6
-181 17 -191 7 -8 15 -59 20 -132 4 -67 12 -123 18 -127 6 -4 13 -54 15 -120
2 -62 10 -124 17 -138 7 -14 13 -61 14 -105 1 -44 8 -92 16 -108 8 -15 17 -60
21 -100 3 -40 11 -78 17 -85 6 -7 14 -32 18 -55 10 -57 39 -138 56 -158 7 -8
13 -20 13 -25 0 -18 66 -50 102 -49 38 0 88 36 88 61 0 7 6 19 14 27 8 8 17
28 19 45 3 17 12 41 21 54 9 12 16 36 16 53 0 17 6 39 14 50 7 11 16 44 19 74
4 29 10 58 16 65 5 6 12 43 16 83 4 42 13 77 21 84 8 6 14 22 14 36 0 29 43
89 70 96 11 3 24 -1 31 -9 6 -8 16 -14 21 -14 6 0 31 -21 57 -46 82 -82 177
-154 203 -154 13 0 33 -7 44 -15 16 -12 74 -14 346 -15 l327 0 19 28 c11 15
22 41 23 57 l4 30 -371 5 c-423 6 -368 -7 -480 108 -34 34 -67 62 -73 62 -6 0
-11 5 -11 11 0 5 -15 16 -34 24 -19 8 -37 19 -41 25 -3 5 -32 10 -64 10 -51 0
-61 -4 -94 -34 -20 -18 -37 -40 -37 -49 0 -8 -7 -17 -15 -21 -8 -3 -15 -12
-15 -21 0 -9 -6 -28 -14 -43 -8 -15 -17 -47 -20 -72 -10 -74 -11 -77 -23 -91
-5 -8 -13 -41 -17 -74 -4 -32 -11 -62 -15 -65 -5 -3 -12 -31 -16 -62 -6 -44
-12 -59 -26 -63 -11 -4 -19 -14 -19 -23 0 -9 -4 -23 -9 -31 -13 -21 -61 2 -61
28 0 11 -4 21 -10 23 -5 2 -14 33 -19 70 -5 37 -13 73 -17 80 -10 16 -11 19
-12 90 -1 31 -8 63 -15 70 -7 7 -14 31 -15 53 -5 101 -15 181 -25 187 -5 3
-12 53 -14 110 -3 56 -11 121 -18 142 -7 21 -13 75 -14 120 -2 86 -9 126 -21
126 -4 0 -10 46 -14 102 -3 56 -11 107 -17 114 -6 7 -13 34 -15 61 -8 72 -40
192 -60 227 -8 12 -25 20 -52 22 -36 2 -45 -1 -61 -25z"/>
<path d="M690 1818 c0 -12 49 -119 71 -158 5 -8 15 -26 21 -40 7 -14 18 -31
25 -38 7 -7 13 -18 13 -23 0 -5 16 -32 35 -59 19 -27 35 -52 35 -55 0 -6 12
-22 40 -53 9 -9 29 -36 44 -60 16 -23 38 -52 50 -65 11 -13 43 -50 71 -83 69
-82 288 -298 368 -363 37 -30 67 -58 67 -63 0 -4 4 -8 10 -8 5 0 25 -15 44
-32 18 -18 44 -40 56 -48 13 -8 31 -22 40 -31 9 -8 24 -18 33 -22 9 -3 17 -11
17 -17 0 -5 6 -10 13 -10 8 0 22 -9 32 -20 10 -11 23 -20 29 -20 7 0 19 -8 28
-17 20 -22 30 -29 88 -68 25 -16 47 -33 48 -37 2 -5 9 -8 16 -8 7 0 33 -15 57
-34 24 -18 54 -36 67 -40 12 -4 22 -11 22 -16 0 -5 14 -11 30 -15 17 -4 30
-11 30 -16 0 -19 49 -8 118 27 40 20 72 40 72 45 0 5 5 9 10 9 6 0 33 16 60
35 27 19 54 35 60 35 5 0 10 5 10 10 0 6 12 16 28 23 15 6 36 20 47 30 11 10
49 39 85 64 36 25 69 52 73 59 4 8 13 14 18 14 10 0 85 56 120 90 9 8 31 28
50 45 170 149 373 344 381 365 3 9 75 93 131 154 20 22 37 45 37 52 0 6 16 27
35 47 19 20 35 40 35 45 0 5 14 28 30 51 17 23 35 52 41 64 5 12 21 42 34 66
37 65 34 71 -30 71 -42 0 -55 -3 -55 -15 0 -8 -4 -15 -9 -15 -5 0 -14 -12 -20
-27 -16 -37 -43 -87 -51 -93 -3 -3 -26 -35 -50 -72 -24 -38 -48 -68 -52 -68
-5 0 -13 -11 -18 -25 -5 -14 -14 -25 -20 -25 -5 0 -10 -5 -10 -11 0 -35 -463
-498 -520 -521 -9 -3 -20 -13 -23 -22 -4 -9 -11 -16 -16 -16 -5 0 -27 -16 -48
-36 -21 -20 -62 -52 -90 -71 -29 -19 -53 -39 -53 -44 0 -5 -6 -9 -13 -9 -8 0
-24 -9 -37 -20 -13 -11 -29 -20 -37 -20 -7 0 -13 -4 -13 -9 0 -9 -121 -96
-168 -120 -15 -8 -29 -17 -32 -21 -3 -3 -19 -15 -37 -25 -30 -18 -32 -18 -75
4 -23 12 -56 30 -73 41 -16 11 -40 24 -52 30 -13 5 -23 14 -23 20 0 5 -4 10
-10 10 -9 0 -80 46 -90 58 -8 11 -63 48 -82 55 -10 3 -18 11 -18 17 0 5 -7 10
-15 10 -7 0 -18 6 -22 13 -4 6 -26 24 -49 40 -22 15 -62 46 -89 70 -27 23 -87
76 -134 117 -113 98 -348 336 -385 388 -16 23 -33 42 -37 42 -5 0 -9 7 -9 15
0 7 -6 18 -14 22 -18 10 -86 98 -86 111 0 5 -12 22 -26 37 -15 16 -33 44 -40
62 -8 18 -18 33 -23 33 -5 0 -12 14 -16 30 -4 17 -10 30 -15 30 -4 0 -25 36
-47 80 l-38 80 -52 0 c-36 0 -53 -4 -53 -12z"/>
</g>
</svg>
